<?xml version="1.0" encoding="utf-8"?>
<!-- Generator: Adobe Illustrator 19.2.1, SVG Export Plug-In . SVG Version: 6.00 Build 0)  -->
<svg version="1.1" xmlns="http://www.w3.org/2000/svg" xmlns:xlink="http://www.w3.org/1999/xlink" x="0px" y="0px"
	 viewBox="0 0 1190.6 841.9" style="enable-background:new 0 0 1190.6 841.9;" xml:space="preserve">
<style type="text/css">
	.st0{fill:#FFFFFF;}
</style>
<g id="Layer_14">
	<g>
		
			<rect x="240.1" y="238.8" transform="matrix(0.7071 -0.7071 0.7071 0.7071 -57.793 345.5396)" class="st0" width="296.2" height="7.4"/>
		
			<rect x="707.8" y="94.4" transform="matrix(0.7071 -0.7071 0.7071 0.7071 36.8027 574.2131)" class="st0" width="7.4" height="296.6"/>
		<path class="st0" d="M596.7,122.6l-46.9-46.9l-46.9,46.9l21,21L336.4,331.1l5.3,5.3l187.6-187.6l20.6,20.6l20.6-20.6l187.3,187.3
			l5.3-5.3L575.7,143.6L596.7,122.6z M513.4,122.6l36.4-36.4l36.4,36.4l-15.7,15.7l-20.6-20.6l-20.6,20.6L513.4,122.6z M549.8,159
			l-15.4-15.4l15.4-15.4l15.4,15.4L549.8,159z"/>
	</g>
	<g>
		
			<rect x="384.5" y="459.3" transform="matrix(0.7071 -0.7071 0.7071 0.7071 -315.7636 452.3945)" class="st0" width="7.4" height="296.2"/>
		
			<rect x="563.2" y="603.5" transform="matrix(0.7071 -0.7071 0.7071 0.7071 -220.9562 680.9803)" class="st0" width="296.6" height="7.4"/>
		<path class="st0" d="M575.7,706.3l187.3-187.3l-5.3-5.3L570.4,701.1l-20.6-20.6L529.2,701L341.6,513.5l-5.3,5.3l187.6,187.6
			l-21,21l46.9,46.9l46.9-46.9L575.7,706.3z M529.2,711.6l20.6,20.6l20.6-20.6l15.7,15.7l-36.4,36.4l-36.4-36.4L529.2,711.6z
			 M565.2,706.3l-15.4,15.4l-15.4-15.4l15.4-15.4L565.2,706.3z"/>
	</g>
</g>
<g id="Layer_16">
	<g>
		<path class="st0" d="M381.9,463.1v-76.5h7.2v39.6l39.2-39.6h8.2l-30.2,30.5l35.5,46h-8.8l-31.9-41.5l-12,12v29.5H381.9z"/>
		<path class="st0" d="M449.3,425c0-5.6,0.8-10.8,2.3-15.7c1.5-4.9,3.8-9.1,6.7-12.8c3-3.6,6.7-6.5,11-8.7c4.4-2.1,9.5-3.2,15.2-3.2
			c5.9,0,11.2,1,15.7,3.1c4.5,2.1,8.2,5,11.3,8.6c3,3.6,5.3,7.9,6.8,12.8c1.5,4.9,2.3,10.2,2.3,15.8c0,5.5-0.8,10.7-2.3,15.6
			c-1.5,4.8-3.8,9.1-6.7,12.7c-3,3.6-6.7,6.5-11.1,8.7c-4.5,2.1-9.6,3.2-15.5,3.2c-5.9,0-11-1.1-15.5-3.2c-4.5-2.1-8.2-5-11.1-8.7
			c-3-3.6-5.2-7.9-6.7-12.7C450,435.7,449.3,430.5,449.3,425z M485,459c5,0,9.2-0.9,12.8-2.8c3.6-1.9,6.5-4.4,8.8-7.5
			c2.3-3.1,4-6.7,5.1-10.8c1.1-4.1,1.6-8.4,1.6-12.8c0-5.3-0.7-10.1-2-14.3c-1.3-4.2-3.2-7.8-5.7-10.8c-2.5-3-5.5-5.2-9-6.8
			c-3.5-1.6-7.5-2.3-11.9-2.3c-4.9,0-9.1,1-12.7,2.9c-3.6,1.9-6.5,4.4-8.8,7.6c-2.3,3.2-4,6.8-5.1,10.9c-1.1,4.1-1.6,8.4-1.6,12.8
			c0,4.5,0.5,8.8,1.6,13c1.1,4.1,2.8,7.7,5.1,10.8c2.3,3.1,5.2,5.6,8.8,7.4C475.6,458.1,479.9,459,485,459z"/>
		<path class="st0" d="M528.2,386.7h7.5l23,68l22.9-68h7.5l-26.5,76.5h-8L528.2,386.7z"/>
		<path class="st0" d="M584.9,463.1l30-76.5h8.2l29.3,76.5H645l-8.8-24h-34.8l-9,24H584.9z M603.8,433h29.9l-15-40.1L603.8,433z"/>
		<path class="st0" d="M686.4,429.4l-22.2,33.8H656l26.3-39.3l-25.3-37.2h8.4l20.9,32.2l21-32.2h8.4l-25.1,37.2l26.2,39.3h-8.3
			L686.4,429.4z"/>
	</g>
	<g>
		<path class="st0" d="M529.1,286.8v-17.3h11.5v1.4h-9.9v6.2h8.9v1.4h-8.9v6.9h10.1v1.4H529.1z"/>
		<path class="st0" d="M544.4,281.6c0.1,0.8,0.2,1.4,0.5,2c0.3,0.5,0.6,1,1.1,1.3s0.9,0.6,1.5,0.7c0.6,0.2,1.2,0.2,1.8,0.2
			c0.8,0,1.4-0.1,2-0.3c0.6-0.2,1-0.5,1.4-0.8c0.4-0.3,0.6-0.7,0.8-1.1s0.3-0.9,0.3-1.4c0-0.7-0.2-1.2-0.5-1.6
			c-0.3-0.4-0.7-0.8-1.2-1c-0.5-0.3-1-0.5-1.7-0.6c-0.6-0.2-1.3-0.3-1.9-0.5c-0.7-0.2-1.3-0.3-1.9-0.5c-0.6-0.2-1.2-0.5-1.7-0.8
			c-0.5-0.4-0.9-0.8-1.2-1.4c-0.3-0.6-0.5-1.3-0.5-2.1c0-0.6,0.1-1.2,0.4-1.7s0.6-1.1,1.1-1.5c0.5-0.4,1.1-0.8,1.8-1
			c0.7-0.3,1.6-0.4,2.5-0.4c1,0,1.8,0.1,2.6,0.4c0.7,0.3,1.3,0.6,1.8,1.1c0.5,0.5,0.8,1,1.1,1.6c0.2,0.6,0.4,1.3,0.4,2h-1.6
			c0-0.7-0.1-1.2-0.3-1.7s-0.5-0.9-0.9-1.2c-0.4-0.3-0.9-0.5-1.4-0.7s-1-0.2-1.6-0.2c-0.8,0-1.5,0.1-2.1,0.3c-0.6,0.2-1,0.5-1.4,0.9
			c-0.3,0.4-0.6,0.8-0.7,1.2c-0.1,0.4-0.2,0.9-0.1,1.3c0.1,0.6,0.3,1,0.7,1.3c0.4,0.3,0.8,0.6,1.3,0.8c0.5,0.2,1.1,0.4,1.7,0.5
			c0.6,0.1,1.2,0.3,1.9,0.4c0.6,0.2,1.3,0.3,1.9,0.5s1.1,0.5,1.6,0.8c0.5,0.4,0.8,0.8,1.1,1.4c0.3,0.6,0.4,1.2,0.4,2.1
			c0,1.6-0.6,2.8-1.7,3.7c-1.1,0.9-2.7,1.3-4.7,1.3c-0.9,0-1.7-0.1-2.5-0.3c-0.8-0.2-1.4-0.6-2-1.1c-0.6-0.5-1-1.1-1.3-1.8
			c-0.3-0.7-0.5-1.5-0.5-2.5H544.4z"/>
		<path class="st0" d="M556.8,269.5h12.6v1.4h-5.5v15.9h-1.6v-15.9h-5.5V269.5z"/>
		<path class="st0" d="M569.6,286.8v-2.1h1.8v2.1H569.6z"/>
	</g>
	<g>
		<path class="st0" d="M514.2,580.1v-17.3h2.5l5.7,15.3h0l5.6-15.3h2.5v17.3h-1.6v-15.5h0l-5.7,15.5h-1.5l-5.7-15.5h0v15.5H514.2z"
			/>
		<path class="st0" d="M534.3,580.1v-17.3h2.5l5.7,15.3h0l5.6-15.3h2.5v17.3h-1.6v-15.5h0l-5.7,15.5h-1.5l-5.7-15.5h0v15.5H534.3z"
			/>
		<path class="st0" d="M559.8,572.5l-5,7.7h-1.9l6-8.9l-5.7-8.4h1.9l4.7,7.3l4.8-7.3h1.9l-5.7,8.4l6,8.9h-1.9L559.8,572.5z"/>
		<path class="st0" d="M567.6,562.8h1.7l5.2,15.4l5.2-15.4h1.7l-6,17.3h-1.8L567.6,562.8z"/>
		<path class="st0" d="M584.4,580.1v-17.3h1.6v17.3H584.4z"/>
	</g>
</g>
</svg>
