<?xml version="1.0" encoding="utf-8"?>
<!-- Generator: Adobe Illustrator 16.0.4, SVG Export Plug-In . SVG Version: 6.00 Build 0)  -->
<!DOCTYPE svg PUBLIC "-//W3C//DTD SVG 1.1//EN" "http://www.w3.org/Graphics/SVG/1.1/DTD/svg11.dtd">
<svg version="1.1" id="Layer_1" xmlns="http://www.w3.org/2000/svg" xmlns:xlink="http://www.w3.org/1999/xlink" x="0px" y="0px"
	 width="612px" height="792px" viewBox="0 0 612 792" enable-background="new 0 0 612 792" xml:space="preserve">
<g id="Layer_14">
	<g>
		
			<rect x="-44.837" y="186.067" transform="matrix(0.7071 -0.7071 0.7071 0.7071 -98.4563 142.8332)" fill="#FFFFFF" width="336.048" height="8.393"/>
		
			<rect x="485.845" y="22.299" transform="matrix(0.707 -0.7072 0.7072 0.707 8.826 402.4034)" fill="#FFFFFF" width="8.397" height="336.502"/>
		<path fill="#FFFFFF" d="M359.762,54.211L306.551,1l-53.21,53.211l23.824,23.824L64.436,290.764l6.015,6.013L283.292,83.932
			l23.372,23.372l23.372-23.372l212.502,212.501l6.014-6.012L335.936,78.033L359.762,54.211z M265.252,54.211l41.296-41.297
			l41.297,41.297l-17.812,17.812L306.662,48.65l-23.372,23.372L265.252,54.211z M306.551,95.509l-17.472-17.472l17.472-17.472
			l17.473,17.472L306.551,95.509z"/>
	</g>
	<g>
		
			<rect x="119.05" y="436.212" transform="matrix(0.7071 -0.7071 0.7071 0.7071 -391.1606 264.1255)" fill="#FFFFFF" width="8.396" height="336.047"/>
		
			<rect x="321.765" y="599.855" transform="matrix(0.7071 -0.7071 0.7071 0.7071 -283.6076 523.4152)" fill="#FFFFFF" width="336.502" height="8.396"/>
		<path fill="#FFFFFF" d="M335.936,716.45l212.502-212.5l-6.016-6.016l-212.5,212.616l-23.373-23.371l-23.372,23.257L70.333,497.708
			l-6.012,6.014l212.841,212.841l-23.824,23.826l53.21,53.21l53.211-53.21L335.936,716.45z M283.179,722.462l23.372,23.374
			l23.373-23.374l17.812,17.811l-41.296,41.299l-41.298-41.299L283.179,722.462z M324.023,716.45l-17.473,17.473L289.08,716.45
			l17.471-17.472L324.023,716.45z"/>
	</g>
</g>
<g id="Layer_16">
	<g>
		<path fill="#FFFFFF" d="M116.06,440.526v-86.794h8.168v44.928l44.476-44.928h9.303l-34.262,34.605l40.277,52.189h-9.983
			l-36.191-47.084l-13.615,13.613v33.471H116.06z"/>
		<path fill="#FFFFFF" d="M192.528,397.301c0-6.354,0.906-12.255,2.608-17.812c1.702-5.56,4.313-10.326,7.602-14.523
			c3.403-4.085,7.601-7.375,12.479-9.871c4.993-2.384,10.778-3.631,17.245-3.631c6.695,0,12.708,1.135,17.813,3.519
			c5.105,2.384,9.303,5.672,12.82,9.755c3.404,4.085,6.013,8.963,7.715,14.523c1.702,5.56,2.609,11.572,2.609,17.927
			c0,6.24-0.907,12.14-2.609,17.698c-1.702,5.447-4.311,10.327-7.602,14.409c-3.403,4.085-7.601,7.376-12.594,9.872
			c-5.105,2.382-10.893,3.632-17.587,3.632c-6.694,0-12.479-1.248-17.584-3.632c-5.105-2.384-9.303-5.671-12.594-9.872
			c-3.403-4.087-5.899-8.965-7.601-14.409C193.323,409.439,192.528,403.54,192.528,397.301z M233.033,435.875
			c5.672,0,10.438-1.022,14.522-3.176c4.085-2.155,7.375-4.992,9.984-8.508c2.608-3.518,4.537-7.6,5.787-12.253
			c1.25-4.651,1.815-9.529,1.815-14.524c0-6.011-0.792-11.457-2.27-16.222c-1.474-4.766-3.631-8.849-6.466-12.252
			c-2.836-3.403-6.24-5.899-10.21-7.716c-3.971-1.814-8.509-2.608-13.502-2.608c-5.56,0-10.322,1.134-14.408,3.291
			c-4.086,2.156-7.375,4.993-9.983,8.622c-2.609,3.631-4.538,7.717-5.787,12.367s-1.815,9.53-1.815,14.52
			c0,5.106,0.568,9.984,1.815,14.753c1.247,4.649,3.176,8.735,5.787,12.253c2.61,3.519,5.899,6.354,9.983,8.396
			C222.368,434.857,227.245,435.875,233.033,435.875z"/>
		<path fill="#FFFFFF" d="M282.044,353.848h8.51l26.093,77.149l25.98-77.149h8.509l-30.066,86.793h-9.075L282.044,353.848z"/>
		<path fill="#FFFFFF" d="M346.373,440.526l34.038-86.794h9.303l33.241,86.794h-8.396l-9.981-27.229h-39.483l-10.211,27.229H346.373
			z M367.816,406.377h33.923l-17.018-45.497L367.816,406.377z"/>
		<path fill="#FFFFFF" d="M461.531,402.293l-25.188,38.348h-9.303l29.84-44.588l-28.704-42.205h9.529l23.713,36.533l23.826-36.533
			h9.527l-28.477,42.205l29.727,44.588h-9.42L461.531,402.293z"/>
	</g>
</g>
</svg>
